<svg xmlns="http://www.w3.org/2000/svg" width="48" height="48" viewBox="0 0 48 48"><circle cx="24" cy="24" r="24" fill="#55d7b8"/><path d="M23.613,0H.877A.879.879,0,0,0,0,.882V16.751a.879.879,0,0,0,.877.882H23.613a.879.879,0,0,0,.877-.882V.882A.879.879,0,0,0,23.613,0Z" transform="translate(11.755 15.184)" fill="#fff"/><path d="M17.641,0,8.82,6.923,0,0Z" transform="translate(15.18 16.947)" fill="#55d7b8"/><path d="M0,13.182V0L9.952,7.812a.873.873,0,0,0,1.079,0L20.983,0V13.182Z" transform="translate(13.509 17.872)" fill="#55d7b8"/></svg>